<svg width="14" height="17" viewBox="0 0 14 17" fill="none" xmlns="http://www.w3.org/2000/svg">
<path d="M6.66667 9.16667C6.44565 9.16667 6.23369 9.25446 6.07741 9.41074C5.92113 9.56702 5.83333 9.77899 5.83333 10V12.5C5.83333 12.721 5.92113 12.933 6.07741 13.0893C6.23369 13.2455 6.44565 13.3333 6.66667 13.3333C6.88768 13.3333 7.09964 13.2455 7.25592 13.0893C7.4122 12.933 7.5 12.721 7.5 12.5V10C7.5 9.77899 7.4122 9.56702 7.25592 9.41074C7.09964 9.25446 6.88768 9.16667 6.66667 9.16667ZM10.8333 5.83333V4.16667C10.8333 3.0616 10.3943 2.00179 9.61295 1.22039C8.83154 0.438987 7.77174 0 6.66667 0C5.5616 0 4.50179 0.438987 3.72039 1.22039C2.93899 2.00179 2.5 3.0616 2.5 4.16667V5.83333C1.83696 5.83333 1.20107 6.09672 0.732233 6.56557C0.263392 7.03441 0 7.67029 0 8.33333V14.1667C0 14.8297 0.263392 15.4656 0.732233 15.9344C1.20107 16.4033 1.83696 16.6667 2.5 16.6667H10.8333C11.4964 16.6667 12.1323 16.4033 12.6011 15.9344C13.0699 15.4656 13.3333 14.8297 13.3333 14.1667V8.33333C13.3333 7.67029 13.0699 7.03441 12.6011 6.56557C12.1323 6.09672 11.4964 5.83333 10.8333 5.83333ZM4.16667 4.16667C4.16667 3.50363 4.43006 2.86774 4.8989 2.3989C5.36774 1.93006 6.00363 1.66667 6.66667 1.66667C7.32971 1.66667 7.96559 1.93006 8.43443 2.3989C8.90328 2.86774 9.16667 3.50363 9.16667 4.16667V5.83333H4.16667V4.16667ZM11.6667 14.1667C11.6667 14.3877 11.5789 14.5996 11.4226 14.7559C11.2663 14.9122 11.0543 15 10.8333 15H2.5C2.27899 15 2.06702 14.9122 1.91074 14.7559C1.75446 14.5996 1.66667 14.3877 1.66667 14.1667V8.33333C1.66667 8.11232 1.75446 7.90036 1.91074 7.74408C2.06702 7.5878 2.27899 7.5 2.5 7.5H10.8333C11.0543 7.5 11.2663 7.5878 11.4226 7.74408C11.5789 7.90036 11.6667 8.11232 11.6667 8.33333V14.1667Z" fill="#808C98"/>
</svg>
