<svg width="20" height="20" viewBox="0 0 20 20" fill="none" xmlns="http://www.w3.org/2000/svg">
<path d="M9.99936 9.08325C10.2425 9.08325 10.4756 9.17983 10.6475 9.35174C10.8194 9.52365 10.916 9.7568 10.916 9.99992V16.0353L12.1013 14.8509C12.2734 14.679 12.5068 14.5826 12.75 14.5827C12.9933 14.5829 13.2265 14.6797 13.3984 14.8518C13.5702 15.024 13.6667 15.2573 13.6665 15.5006C13.6664 15.7438 13.5696 15.977 13.3974 16.1489L10.8088 18.733C10.5769 18.964 10.3504 19.1666 9.99936 19.1666C9.69136 19.1666 9.48053 19.0117 9.27703 18.8183L6.60128 16.1489C6.42915 15.977 6.33236 15.7438 6.33218 15.5006C6.33201 15.2573 6.42848 15.024 6.60036 14.8518C6.77224 14.6797 7.00546 14.5829 7.24871 14.5827C7.49196 14.5826 7.72532 14.679 7.89744 14.8509L9.08269 16.0353V9.99992C9.08269 9.7568 9.17927 9.52365 9.35118 9.35174C9.52309 9.17983 9.75624 9.08325 9.99936 9.08325ZM9.54103 0.833252C12.093 0.833252 14.271 2.43742 15.1199 4.69425C16.2506 5.00516 17.2525 5.66921 17.9794 6.58955C18.7063 7.50989 19.1201 8.63837 19.1605 9.81043C19.2009 10.9825 18.8658 12.1368 18.2041 13.105C17.5424 14.0733 16.5886 14.8048 15.4819 15.1928C15.4126 14.5741 15.1353 13.9972 14.6954 13.5566C14.2264 13.0868 13.6032 12.8026 12.9409 12.7563L12.7494 12.7499V9.99992C12.75 9.28409 12.4716 8.5962 11.9732 8.08242C11.4747 7.56864 10.7956 7.26946 10.0801 7.24845C9.36454 7.22745 8.66902 7.48627 8.1413 7.96992C7.61358 8.45358 7.29525 9.12395 7.25394 9.83858L7.24936 9.99992V12.7499C6.88788 12.7499 6.52994 12.8211 6.19601 12.9595C5.86208 13.0979 5.55872 13.3008 5.30328 13.5566C4.81094 14.0499 4.52426 14.7117 4.50119 15.4083C3.54688 15.2132 2.67945 14.7194 2.02465 13.9983C1.36986 13.2772 0.961707 12.3663 0.859367 11.3977C0.757028 10.429 0.965817 9.45295 1.45547 8.61093C1.94512 7.76892 2.6902 7.10471 3.58269 6.71459C3.60294 5.14772 4.23962 3.6519 5.35484 2.5511C6.47006 1.45029 7.97403 0.833121 9.54103 0.833252Z" fill="white"/>
</svg>
