<svg width="14" height="14" viewBox="0 0 14 14" fill="none" xmlns="http://www.w3.org/2000/svg">
<path d="M7.499 6.5C7.499 6.36739 7.44632 6.24021 7.35255 6.14645C7.25879 6.05268 7.13161 6 6.999 6C6.86639 6 6.73921 6.05268 6.64545 6.14645C6.55168 6.24021 6.499 6.36739 6.499 6.5V9.5C6.499 9.63261 6.55168 9.75979 6.64545 9.85355C6.73921 9.94732 6.86639 10 6.999 10C7.13161 10 7.25879 9.94732 7.35255 9.85355C7.44632 9.75979 7.499 9.63261 7.499 9.5V6.5ZM7.749 4.5C7.749 4.69878 7.67003 4.88942 7.52948 5.02998C7.38892 5.17054 7.19828 5.2495 6.9995 5.2495C6.80072 5.2495 6.61008 5.17054 6.46952 5.02998C6.32896 4.88942 6.25 4.69878 6.25 4.5C6.25 4.30135 6.32891 4.11084 6.46938 3.97038C6.60984 3.82991 6.80035 3.751 6.999 3.751C7.19765 3.751 7.38816 3.82991 7.52862 3.97038C7.66909 4.11084 7.749 4.30135 7.749 4.5ZM7 0C5.14348 0 3.36301 0.737498 2.05025 2.05025C0.737498 3.36301 0 5.14348 0 7C0 8.85652 0.737498 10.637 2.05025 11.9497C3.36301 13.2625 5.14348 14 7 14C8.85652 14 10.637 13.2625 11.9497 11.9497C13.2625 10.637 14 8.85652 14 7C14 5.14348 13.2625 3.36301 11.9497 2.05025C10.637 0.737498 8.85652 0 7 0ZM1 7C1 6.21207 1.15519 5.43185 1.45672 4.7039C1.75825 3.97595 2.20021 3.31451 2.75736 2.75736C3.31451 2.20021 3.97595 1.75825 4.7039 1.45672C5.43185 1.15519 6.21207 1 7 1C7.78793 1 8.56815 1.15519 9.2961 1.45672C10.0241 1.75825 10.6855 2.20021 11.2426 2.75736C11.7998 3.31451 12.2417 3.97595 12.5433 4.7039C12.8448 5.43185 13 6.21207 13 7C13 8.5913 12.3679 10.1174 11.2426 11.2426C10.1174 12.3679 8.5913 13 7 13C5.4087 13 3.88258 12.3679 2.75736 11.2426C1.63214 10.1174 1 8.5913 1 7Z" fill="#3783E1"/>
</svg>
