<svg width="14" height="18" viewBox="0 0 14 18" fill="none" xmlns="http://www.w3.org/2000/svg">
<path d="M11.1653 6.49935V4.83268C11.1653 2.49935 9.33204 0.666016 6.9987 0.666016C4.66537 0.666016 2.83204 2.49935 2.83204 4.83268V6.49935C1.41537 6.49935 0.332031 7.58268 0.332031 8.99935V14.8327C0.332031 16.2493 1.41537 17.3327 2.83204 17.3327H11.1653C12.582 17.3327 13.6653 16.2493 13.6653 14.8327V8.99935C13.6653 7.58268 12.582 6.49935 11.1653 6.49935ZM4.4987 4.83268C4.4987 3.41602 5.58204 2.33268 6.9987 2.33268C8.41537 2.33268 9.4987 3.41602 9.4987 4.83268V6.49935H4.4987V4.83268ZM7.83204 13.166C7.83204 13.666 7.4987 13.9993 6.9987 13.9993C6.4987 13.9993 6.16537 13.666 6.16537 13.166V10.666C6.16537 10.166 6.4987 9.83268 6.9987 9.83268C7.4987 9.83268 7.83204 10.166 7.83204 10.666V13.166Z" fill="#808C98"/>
</svg>
