<svg width="20" height="20" viewBox="0 0 20 20" fill="none" xmlns="http://www.w3.org/2000/svg">
<path d="M0.75 7.33341C0.75 6.60407 1.03973 5.9046 1.55546 5.38887C2.07118 4.87315 2.77065 4.58341 3.5 4.58341H6.11525C6.3875 4.58341 6.55525 4.30016 6.45075 4.049C6.39808 3.92548 6.35636 3.79757 6.32608 3.66675C6.02267 2.30366 7.05208 0.916748 8.54167 0.916748C10.0322 0.916748 11.0607 2.30366 10.7572 3.66675C10.727 3.79757 10.6853 3.92548 10.6326 4.049C10.5272 4.30016 10.6958 4.58341 10.9681 4.58341H12.6667C13.396 4.58341 14.0955 4.87315 14.6112 5.38887C15.1269 5.9046 15.4167 6.60407 15.4167 7.33341V9.032C15.4167 9.30425 15.699 9.472 15.9511 9.3675C16.0748 9.31616 16.2013 9.27216 16.3333 9.24283C17.6964 8.93941 19.0833 9.96791 19.0833 11.4584C19.0833 12.9489 17.6964 13.9774 16.3333 13.674C16.2025 13.6437 16.0746 13.602 15.9511 13.5493C15.6999 13.4439 15.4167 13.6126 15.4167 13.8848V16.5001C15.4167 17.2294 15.1269 17.9289 14.6112 18.4446C14.0955 18.9604 13.396 19.2501 12.6667 19.2501H10.9314C10.6674 19.2501 10.4978 18.9833 10.5739 18.7312C10.6124 18.6029 10.6384 18.4703 10.6518 18.3334C10.6762 18.0415 10.6397 17.7477 10.5447 17.4706C10.4497 17.1936 10.2983 16.9392 10.1 16.7236C9.90165 16.5081 9.66076 16.336 9.39254 16.2183C9.12431 16.1006 8.83458 16.0398 8.54167 16.0398C8.24875 16.0398 7.95902 16.1006 7.6908 16.2183C7.42257 16.336 7.18168 16.5081 6.98336 16.7236C6.78504 16.9392 6.63359 17.1936 6.5386 17.4706C6.44361 17.7477 6.40714 18.0415 6.4315 18.3334C6.44433 18.4703 6.47061 18.6029 6.51033 18.7312C6.5855 18.9833 6.41592 19.2501 6.15283 19.2501H3.5C2.77065 19.2501 2.07118 18.9604 1.55546 18.4446C1.03973 17.9289 0.75 17.2294 0.75 16.5001V13.8482C0.75 13.5842 1.01675 13.4146 1.26883 13.4907C1.39717 13.5292 1.52978 13.5551 1.66667 13.5686C1.95857 13.5929 2.25235 13.5565 2.52943 13.4615C2.80651 13.3665 3.06088 13.215 3.27644 13.0167C3.492 12.8184 3.66407 12.5775 3.78177 12.3093C3.89947 12.0411 3.96024 11.7513 3.96024 11.4584C3.96024 11.1655 3.89947 10.8758 3.78177 10.6075C3.66407 10.3393 3.492 10.0984 3.27644 9.90011C3.06088 9.70178 2.80651 9.55034 2.52943 9.45535C2.25235 9.36036 1.95857 9.32389 1.66667 9.34825C1.52978 9.36108 1.39717 9.38736 1.26883 9.42708C1.01675 9.50225 0.75 9.33266 0.75 9.06958V7.33341Z" fill="white"/>
</svg>
