<svg width="20" height="20" viewBox="0 0 20 20" fill="none" xmlns="http://www.w3.org/2000/svg">
<path d="M10.0026 0.833252C15.0654 0.833252 19.1693 4.93717 19.1693 9.99992C19.1693 15.0627 15.0654 19.1666 10.0026 19.1666C4.93985 19.1666 0.835938 15.0627 0.835938 9.99992C0.835938 4.93717 4.93985 0.833252 10.0026 0.833252ZM10.0026 13.6666C9.75949 13.6666 9.52633 13.7632 9.35442 13.9351C9.18251 14.107 9.08594 14.3401 9.08594 14.5833C9.08594 14.8264 9.18251 15.0595 9.35442 15.2314C9.52633 15.4033 9.75949 15.4999 10.0026 15.4999C10.2457 15.4999 10.4789 15.4033 10.6508 15.2314C10.8227 15.0595 10.9193 14.8264 10.9193 14.5833C10.9193 14.3401 10.8227 14.107 10.6508 13.9351C10.4789 13.7632 10.2457 13.6666 10.0026 13.6666ZM10.0026 4.95825C9.12131 4.95825 8.27611 5.30834 7.65295 5.93151C7.02978 6.55468 6.67969 7.39988 6.67969 8.28117C6.67969 8.52428 6.77626 8.75744 6.94817 8.92935C7.12008 9.10126 7.35324 9.19783 7.59635 9.19783C7.83947 9.19783 8.07263 9.10126 8.24453 8.92935C8.41644 8.75744 8.51302 8.52428 8.51302 8.28117C8.51332 8.01079 8.58722 7.74558 8.72677 7.514C8.86633 7.28241 9.06629 7.09318 9.30521 6.96659C9.54413 6.84001 9.813 6.78084 10.083 6.79543C10.353 6.81002 10.6139 6.89782 10.8378 7.04942C11.0617 7.20102 11.2401 7.4107 11.3539 7.65597C11.4676 7.90125 11.5125 8.17287 11.4837 8.44171C11.4549 8.71055 11.3534 8.96647 11.1902 9.18204C11.0269 9.3976 10.8081 9.56467 10.5572 9.66533C9.93752 9.91284 9.08594 10.5472 9.08594 11.6041V11.8333C9.08594 12.0764 9.18251 12.3095 9.35442 12.4814C9.52633 12.6533 9.75949 12.7499 10.0026 12.7499C10.2457 12.7499 10.4789 12.6533 10.6508 12.4814C10.8227 12.3095 10.9193 12.0764 10.9193 11.8333C10.9193 11.6096 10.9651 11.4978 11.1585 11.4024L11.2383 11.3658C11.954 11.0778 12.5473 10.5499 12.9164 9.87243C13.2856 9.19498 13.4076 8.41022 13.2615 7.65269C13.1154 6.89516 12.7103 6.21203 12.1157 5.72043C11.5212 5.22883 10.7741 4.95937 10.0026 4.95825Z" fill="white"/>
</svg>
