<svg width="18" height="18" viewBox="0 0 18 18" fill="none" xmlns="http://www.w3.org/2000/svg">
<path d="M5.33529 0.75V17.25H2.58529C2.09906 17.25 1.63274 17.0568 1.28892 16.713C0.945107 16.3692 0.751953 15.9029 0.751953 15.4167V2.58333C0.751953 2.0971 0.945107 1.63079 1.28892 1.28697C1.63274 0.943154 2.09906 0.75 2.58529 0.75H5.33529ZM17.252 7.16667V15.4167C17.2521 15.8792 17.0774 16.3247 16.7629 16.6638C16.4484 17.003 16.0173 17.2107 15.5561 17.2454L15.4186 17.25H7.16862V7.16667H17.252ZM15.4186 0.75C15.8811 0.749854 16.3266 0.924539 16.6658 1.23904C17.0049 1.55354 17.2127 1.98461 17.2474 2.44583L17.252 2.58333V5.33333H7.16862V0.75H15.4186Z" fill="white"/>
</svg>
