<svg width="19" height="24" viewBox="0 0 19 24" fill="none" xmlns="http://www.w3.org/2000/svg">
<g clip-path="url(#clip0_4322_43252)">
<path d="M13.8538 0.0078125L17.6923 3.92043V24.0078H0V0.0078125H13.8538Z" fill="#EAF4FE"/>
<path d="M17.6921 7.90332V4.00635H13.8613" fill="#C5E1F9"/>
<path d="M13.8613 0.0078125V3.90478H17.6921" fill="#7EB3FF"/>
<path d="M18.9997 18.092C18.9997 18.6476 18.5612 19.0937 18.0151 19.0937H2.77661C2.23045 19.0937 1.79199 18.6476 1.79199 18.092V11.5893C1.79199 11.0337 2.23045 10.5876 2.77661 10.5876H18.0151C18.5612 10.5876 18.9997 11.0337 18.9997 11.5893V18.092Z" fill="#FD2227"/>
<path d="M4.25391 12.5908V17.5911" stroke="white" stroke-width="1.29443"/>
<path d="M14.085 12.5908V17.5911" stroke="white" stroke-width="1.29443"/>
<path d="M9.16895 12.5908V17.5911" stroke="white" stroke-width="1.29443"/>
<path d="M3.76172 12.5908H6.21556C6.76172 12.5908 7.20018 13.0369 7.20018 13.5925V14.0933C7.20018 14.6489 6.76172 15.0949 6.21556 15.0949H3.76172M8.6771 12.5908H11.1309C11.6771 12.5908 12.1156 13.0369 12.1156 13.5925V16.0887C12.1156 16.6443 11.6771 17.0903 11.1309 17.0903H8.6771" stroke="white" stroke-width="1.29443"/>
<path d="M13.5928 12.5908H17.0312" stroke="white" stroke-width="1.29443"/>
<path d="M13.5928 15.095H16.5389" stroke="white" stroke-width="1.29443"/>
</g>
<defs>
<clipPath id="clip0_4322_43252">
<rect width="19" height="24" fill="white" transform="translate(0 0.0078125)"/>
</clipPath>
</defs>
</svg>
