<svg width="54" height="54" viewBox="0 0 54 54" fill="none" xmlns="http://www.w3.org/2000/svg">
<path d="M21.6016 6.29844L21.6016 15.2984C21.6016 15.7934 22.0066 16.1984 22.5016 16.1984L31.5016 16.1984C31.9966 16.1984 32.4016 15.7934 32.4016 15.2984L32.4016 6.29844C32.4016 5.80345 31.9966 5.39844 31.5016 5.39844L22.5016 5.39844C22.0066 5.39844 21.6016 5.80345 21.6016 6.29844ZM5.40156 6.29844L5.40156 15.2984C5.40156 15.7934 5.80657 16.1984 6.30156 16.1984L15.3016 16.1984C15.7965 16.1984 16.2016 15.7934 16.2016 15.2984L16.2016 6.29844C16.2016 5.80345 15.7965 5.39844 15.3016 5.39844L6.30156 5.39844C5.80657 5.39844 5.40156 5.80345 5.40156 6.29844ZM37.8016 6.29844L37.8016 15.2984C37.8016 15.7934 38.2066 16.1984 38.7016 16.1984L47.7016 16.1984C48.1966 16.1984 48.6016 15.7934 48.6016 15.2984L48.6016 6.29844C48.6016 5.80345 48.1966 5.39844 47.7016 5.39844L38.7016 5.39844C38.2066 5.39844 37.8016 5.80345 37.8016 6.29844Z" fill="#2E85F7"/>
<path d="M6.30625 21.4406H13.6062C14.1012 21.4406 14.5062 21.8456 14.5062 22.3406C14.5062 22.8356 14.1012 23.2406 13.6062 23.2406H6.30625C5.81126 23.2406 5.40625 22.8356 5.40625 22.3406C5.40625 21.8456 5.81126 21.4406 6.30625 21.4406Z" fill="#2E85F7"/>
<path d="M6.30625 18.6406H15.1063C15.6012 18.6406 16.0062 19.0456 16.0062 19.5406C16.0062 20.0356 15.6012 20.4406 15.1063 20.4406H6.30625C5.81126 20.4406 5.40625 20.0356 5.40625 19.5406C5.40625 19.0456 5.81126 18.6406 6.30625 18.6406Z" fill="#2E85F7"/>
<path d="M22.5953 21.4406H29.8953C30.3903 21.4406 30.7953 21.8456 30.7953 22.3406C30.7953 22.8356 30.3903 23.2406 29.8953 23.2406H22.5953C22.1003 23.2406 21.6953 22.8356 21.6953 22.3406C21.6953 21.8456 22.1003 21.4406 22.5953 21.4406Z" fill="#2E85F7"/>
<path d="M22.5953 18.6406H31.3953C31.8903 18.6406 32.2953 19.0456 32.2953 19.5406C32.2953 20.0356 31.8903 20.4406 31.3953 20.4406H22.5953C22.1003 20.4406 21.6953 20.0356 21.6953 19.5406C21.6953 19.0456 22.1003 18.6406 22.5953 18.6406Z" fill="#2E85F7"/>
<path d="M38.6969 21.4406H45.9969C46.4919 21.4406 46.8969 21.8456 46.8969 22.3406C46.8969 22.8356 46.4919 23.2406 45.9969 23.2406H38.6969C38.2019 23.2406 37.7969 22.8356 37.7969 22.3406C37.7969 21.8456 38.2019 21.4406 38.6969 21.4406Z" fill="#2E85F7"/>
<path d="M38.6969 18.6406H47.4969C47.9919 18.6406 48.3969 19.0456 48.3969 19.5406C48.3969 20.0356 47.9919 20.4406 47.4969 20.4406H38.6969C38.2019 20.4406 37.7969 20.0356 37.7969 19.5406C37.7969 19.0456 38.2019 18.6406 38.6969 18.6406Z" fill="#2E85F7"/>
<path d="M21.6016 30.9L21.6016 39.9C21.6016 40.395 22.0066 40.8 22.5016 40.8L31.5016 40.8C31.9966 40.8 32.4016 40.395 32.4016 39.9L32.4016 30.9C32.4016 30.405 31.9966 30 31.5016 30L22.5016 30C22.0066 30 21.6016 30.405 21.6016 30.9ZM5.40156 30.9L5.40156 39.9C5.40156 40.395 5.80657 40.8 6.30156 40.8L15.3016 40.8C15.7965 40.8 16.2016 40.395 16.2016 39.9L16.2016 30.9C16.2016 30.405 15.7965 30 15.3016 30L6.30156 30C5.80657 30 5.40156 30.405 5.40156 30.9ZM37.8016 30.9L37.8016 39.9C37.8016 40.395 38.2066 40.8 38.7016 40.8L47.7016 40.8C48.1966 40.8 48.6016 40.395 48.6016 39.9L48.6016 30.9C48.6016 30.405 48.1966 30 47.7016 30L38.7016 30C38.2066 30 37.8016 30.405 37.8016 30.9Z" fill="#2E85F7"/>
<path d="M6.30625 46.0422H13.6062C14.1012 46.0422 14.5062 46.4472 14.5062 46.9422C14.5062 47.4372 14.1012 47.8422 13.6062 47.8422H6.30625C5.81126 47.8422 5.40625 47.4372 5.40625 46.9422C5.40625 46.4472 5.81126 46.0422 6.30625 46.0422Z" fill="#2E85F7"/>
<path d="M6.30625 43.2422H15.1063C15.6012 43.2422 16.0062 43.6472 16.0062 44.1422C16.0062 44.6372 15.6012 45.0422 15.1063 45.0422H6.30625C5.81126 45.0422 5.40625 44.6372 5.40625 44.1422C5.40625 43.6472 5.81126 43.2422 6.30625 43.2422Z" fill="#2E85F7"/>
<path d="M22.5953 46.0422H29.8953C30.3903 46.0422 30.7953 46.4472 30.7953 46.9422C30.7953 47.4372 30.3903 47.8422 29.8953 47.8422H22.5953C22.1003 47.8422 21.6953 47.4372 21.6953 46.9422C21.6953 46.4472 22.1003 46.0422 22.5953 46.0422Z" fill="#2E85F7"/>
<path d="M22.5953 43.2422H31.3953C31.8903 43.2422 32.2953 43.6472 32.2953 44.1422C32.2953 44.6372 31.8903 45.0422 31.3953 45.0422H22.5953C22.1003 45.0422 21.6953 44.6372 21.6953 44.1422C21.6953 43.6472 22.1003 43.2422 22.5953 43.2422Z" fill="#2E85F7"/>
<path d="M38.6969 46.0422H45.9969C46.4919 46.0422 46.8969 46.4472 46.8969 46.9422C46.8969 47.4372 46.4919 47.8422 45.9969 47.8422H38.6969C38.2019 47.8422 37.7969 47.4372 37.7969 46.9422C37.7969 46.4472 38.2019 46.0422 38.6969 46.0422Z" fill="#2E85F7"/>
<path d="M38.6969 43.2422H47.4969C47.9919 43.2422 48.3969 43.6472 48.3969 44.1422C48.3969 44.6372 47.9919 45.0422 47.4969 45.0422H38.6969C38.2019 45.0422 37.7969 44.6372 37.7969 44.1422C37.7969 43.6472 38.2019 43.2422 38.6969 43.2422Z" fill="#2E85F7"/>
</svg>
