<svg width="54" height="54" viewBox="0 0 54 54" fill="none" xmlns="http://www.w3.org/2000/svg">
<path d="M6.29844 32.4004H15.2984C15.7934 32.4004 16.1984 31.9954 16.1984 31.5004V22.5004C16.1984 22.0054 15.7934 21.6004 15.2984 21.6004H6.29844C5.80345 21.6004 5.39844 22.0054 5.39844 22.5004V31.5004C5.39844 31.9954 5.80345 32.4004 6.29844 32.4004ZM47.6984 12.6004H20.6984C20.2034 12.6004 19.7984 13.0054 19.7984 13.5004C19.7984 13.9954 20.2034 14.4004 20.6984 14.4004H47.6984C48.1934 14.4004 48.5984 13.9954 48.5984 13.5004C48.5984 13.0054 48.1934 12.6004 47.6984 12.6004ZM47.6984 7.20039H20.6984C20.2034 7.20039 19.7984 7.6054 19.7984 8.10039C19.7984 8.59538 20.2034 9.00039 20.6984 9.00039H47.6984C48.1934 9.00039 48.5984 8.59538 48.5984 8.10039C48.5984 7.6054 48.1934 7.20039 47.6984 7.20039ZM6.29844 48.6004H15.2984C15.7934 48.6004 16.1984 48.1954 16.1984 47.7004V38.7004C16.1984 38.2054 15.7934 37.8004 15.2984 37.8004H6.29844C5.80345 37.8004 5.39844 38.2054 5.39844 38.7004V47.7004C5.39844 48.1954 5.80345 48.6004 6.29844 48.6004ZM47.6984 39.6004H20.6984C20.2034 39.6004 19.7984 40.0054 19.7984 40.5004C19.7984 40.9954 20.2034 41.4004 20.6984 41.4004H47.6984C48.1934 41.4004 48.5984 40.9954 48.5984 40.5004C48.5984 40.0054 48.1934 39.6004 47.6984 39.6004ZM47.6984 23.4004H20.6984C20.2034 23.4004 19.7984 23.8054 19.7984 24.3004C19.7984 24.7954 20.2034 25.2004 20.6984 25.2004H47.6984C48.1934 25.2004 48.5984 24.7954 48.5984 24.3004C48.5984 23.8054 48.1934 23.4004 47.6984 23.4004ZM6.29844 16.2004H15.2984C15.7934 16.2004 16.1984 15.7954 16.1984 15.3004V6.30039C16.1984 5.8054 15.7934 5.40039 15.2984 5.40039H6.29844C5.80345 5.40039 5.39844 5.8054 5.39844 6.30039V15.3004C5.39844 15.7954 5.80345 16.2004 6.29844 16.2004ZM47.6984 45.0004H20.6984C20.2034 45.0004 19.7984 45.4054 19.7984 45.9004C19.7984 46.3954 20.2034 46.8004 20.6984 46.8004H47.6984C48.1934 46.8004 48.5984 46.3954 48.5984 45.9004C48.5984 45.4054 48.1934 45.0004 47.6984 45.0004ZM47.6984 28.8004H20.6984C20.2034 28.8004 19.7984 29.2054 19.7984 29.7004C19.7984 30.1954 20.2034 30.6004 20.6984 30.6004H47.6984C48.1934 30.6004 48.5984 30.1954 48.5984 29.7004C48.5984 29.2054 48.1934 28.8004 47.6984 28.8004Z" fill="#2E85F7"/>
</svg>
