<svg width="128" height="128" viewBox="0 0 128 128" fill="none" xmlns="http://www.w3.org/2000/svg">
<rect width="128" height="128" rx="16" fill="#010101"/>
<g clip-path="url(#clip0_5587_66292)">
<path fill-rule="evenodd" clip-rule="evenodd" d="M105.674 72.6197C104.543 71.72 103.156 71.1904 101.706 71.1048C100.902 71.1048 100.487 71.4182 100.487 71.9171C100.487 72.3875 100.979 72.6745 102.432 73.2492C104.455 74.0615 106.347 75.0254 106.347 77.3783C106.347 80.0946 104.325 82.4448 100.279 82.4448C97.7451 82.4801 95.2846 81.6077 93.3545 79.9897L95.7922 77.0906C97.074 78.2463 98.7273 78.9212 100.463 78.9974C101.293 78.9974 101.708 78.659 101.708 78.1357C101.708 77.6396 101.164 77.3525 99.7891 76.8036C97.6598 75.9548 96.0031 75.0078 95.8609 72.9643H95.56C92.8627 72.9643 91.1256 74.4791 90.2436 77.848L89.1027 82.1003H84.1751L87.9357 67.9708H92.8606L92.1085 70.8178C93.4575 68.8068 95.0909 67.5796 97.3734 67.7359L96.8314 69.7565C97.8439 68.4765 99.603 67.6581 101.963 67.6581C104.153 67.6368 106.289 68.3351 108.032 69.6427L105.674 72.6197ZM77.2253 82.4401C72.9461 82.4401 70.3531 79.5931 70.3531 75.8586C70.3658 73.7002 71.2364 71.6327 72.778 70.0995C74.3197 68.5663 76.4097 67.6896 78.5997 67.6574C82.9044 67.6574 85.498 70.5044 85.498 74.2131C85.4899 76.3797 84.6181 78.4564 83.0705 79.9954C81.523 81.5344 79.4237 82.4124 77.2253 82.4401ZM78.3401 71.7838C76.3949 71.7838 75.0726 73.8469 75.0726 75.6752C75.0726 77.2943 76.0583 78.3151 77.5104 78.3151C79.4556 78.3151 80.7778 76.2519 80.7778 74.3972C80.7778 72.8025 79.7928 71.7838 78.3401 71.7838ZM71.1279 71.9665H67.8632L66.6701 76.4063C66.5981 76.6886 66.5546 76.9772 66.5403 77.2679C66.5403 77.8426 66.8775 78.156 67.6551 78.156C68.2961 78.134 68.9282 78.0014 69.5227 77.7641L68.4333 81.8931C67.5007 82.2186 66.5186 82.3848 65.5292 82.3846C62.6766 82.3846 61.2761 81.131 61.2761 79.0414C61.2802 78.4149 61.3675 77.7916 61.5357 77.1874L62.9363 71.9638H61.2761L62.3394 67.9701H63.9989L64.9605 64.3921H69.8874L68.9258 67.9701H72.1933L71.1279 71.9665ZM52.7472 82.4401C48.468 82.4401 45.875 79.5931 45.875 75.8586C45.8877 73.7004 46.7581 71.6329 48.2997 70.0998C49.8412 68.5666 51.931 67.6898 54.1209 67.6574C58.4256 67.6574 61.0192 70.5044 61.0192 74.2131C61.0111 76.3796 60.1394 78.4562 58.592 79.9952C57.0446 81.5341 54.9455 82.4122 52.7472 82.4401ZM53.862 71.7838C51.9167 71.7838 50.5945 73.8469 50.5945 75.6752C50.5945 77.2943 51.5802 78.3151 53.0322 78.3151C54.9775 78.3151 56.2997 76.2519 56.2997 74.3972C56.2976 72.8025 55.312 71.7838 53.8592 71.7838H53.862Z" fill="white"/>
<path fill-rule="evenodd" clip-rule="evenodd" d="M45.6651 74.4217L43.6169 82.1003H38.7154L40.6585 74.7093C40.7656 74.3343 40.8264 73.948 40.8399 73.5586C40.8681 73.3571 40.8488 73.1519 40.7833 72.959C40.7178 72.7661 40.608 72.5907 40.4623 72.4465C40.3167 72.3024 40.1393 72.1933 39.9438 72.1279C39.7483 72.0625 39.5402 72.0425 39.3356 72.0695C38.0127 72.0695 37.2063 73.0097 36.7681 74.6288L34.7734 82.1003H29.8457L31.8164 74.7093C31.9234 74.3343 31.9843 73.948 31.9977 73.5586C32.0237 73.3576 32.0028 73.1533 31.9365 72.9614C31.8702 72.7695 31.7603 72.5951 31.6152 72.4514C31.4701 72.3078 31.2936 72.1987 31.0992 72.1325C30.9048 72.0663 30.6976 72.0447 30.4935 72.0695C30.4017 72.07 30.3099 72.0754 30.2187 72.0857H23.6673L24.7663 67.9695H29.6939L29.2818 69.5365C29.7678 68.9742 30.3664 68.517 31.0401 68.1934C31.7139 67.8698 32.4482 67.6869 33.197 67.6561C33.9959 67.6086 34.7881 67.8241 35.4491 68.2688C36.1101 68.7135 36.6024 69.3621 36.8484 70.1126C37.4579 69.3575 38.2302 68.7455 39.1093 68.3209C39.9884 67.8963 40.9523 67.6697 41.9313 67.6575C44.6026 67.6575 46.0807 69.2766 46.0807 71.8623C46.0464 72.7287 45.9069 73.588 45.6651 74.4217ZM27.9781 74.4562C27.961 74.5137 27.9431 74.5706 27.9266 74.6308L25.9299 82.1003H21.0029L23.0368 74.4562H27.9781Z" fill="#6B98E1"/>
</g>
<path d="M76.2604 46.6501C72.9043 44.751 68.4779 43.3409 64.4437 42.8854C62.926 42.714 58.0011 42.7061 56.0821 42.8719C49.0659 43.4779 40.8136 45.5526 31.2808 49.1067C25.9885 51.0798 23.59 51.7982 21.3759 52.0733C20.2944 52.2077 19.678 52.1901 18.6676 51.9965C18.3319 51.9322 18.3356 51.9428 18.7385 52.1992C20.1703 53.1103 20.6655 54.6579 20.4087 57.4192L20.2881 58.7171L21.1191 57.8101C22.4727 56.3329 24.6919 55.4137 27.1376 55.317C27.6236 55.2979 28.0205 55.2477 28.0197 55.2056C28.0188 55.1637 27.534 54.9477 26.942 54.7259C26.3502 54.504 25.9205 54.271 25.987 54.2081C26.3608 53.8548 30.8202 52.7466 33.6452 52.305C36.1634 51.9113 39.9798 51.5322 43.1562 51.3603C46.2383 51.1934 56.8223 51.2668 57.7119 51.4612C57.9457 51.5122 58.09 51.5036 58.0325 51.4419C57.8817 51.2802 49.7335 50.5586 43.6815 50.1711C39.6807 49.9149 38.8988 49.7314 39.3733 49.1597C39.6885 48.7798 40.7886 48.3049 42.903 47.636C50.6937 45.1711 57.3443 44.1488 63.0026 44.5466C70.3099 45.0604 75.5304 46.5701 80.1393 49.5026C80.3148 49.6143 80.4582 49.6706 80.4582 49.6276C80.4582 49.4435 77.5431 47.3758 76.2604 46.6501Z" fill="white"/>
<path d="M76.2604 46.6501C72.9043 44.751 68.4779 43.3409 64.4437 42.8854C62.926 42.714 58.0011 42.7061 56.0821 42.8719C49.0659 43.4779 40.8136 45.5526 31.2808 49.1067C25.9885 51.0798 23.59 51.7982 21.3759 52.0733C20.2944 52.2077 19.678 52.1901 18.6676 51.9965C18.3319 51.9322 18.3356 51.9428 18.7385 52.1992C20.1703 53.1103 20.6655 54.6579 20.4087 57.4192L20.2881 58.7171L21.1191 57.8101C22.4727 56.3329 24.6919 55.4137 27.1376 55.317C27.6236 55.2979 28.0205 55.2477 28.0197 55.2056C28.0188 55.1637 27.534 54.9477 26.942 54.7259C26.3502 54.504 25.9205 54.271 25.987 54.2081C26.3608 53.8548 30.8202 52.7466 33.6452 52.305C36.1634 51.9113 39.9798 51.5322 43.1562 51.3603C46.2383 51.1934 56.8223 51.2668 57.7119 51.4612C57.9457 51.5122 58.09 51.5036 58.0325 51.4419C57.8817 51.2802 49.7335 50.5586 43.6815 50.1711C39.6807 49.9149 38.8988 49.7314 39.3733 49.1597C39.6885 48.7798 40.7886 48.3049 42.903 47.636C50.6937 45.1711 57.3443 44.1488 63.0026 44.5466C70.3099 45.0604 75.5304 46.5701 80.1393 49.5026C80.3148 49.6143 80.4582 49.6706 80.4582 49.6276C80.4582 49.4435 77.5431 47.3758 76.2604 46.6501Z" fill="#6B98E1"/>
<path d="M71.6715 47.085C71.6715 46.8619 67.4697 46.0574 64.5145 45.7146C62.5273 45.4841 56.9866 45.6358 54.7357 45.9824C52.8455 46.2734 50.27 46.7929 50.1569 46.9059C50.1278 46.9351 51.8795 46.963 54.0497 46.9679C56.2197 46.973 61.0724 47.0194 64.8334 47.0711C68.5944 47.1228 71.6715 47.1291 71.6715 47.085Z" fill="white"/>
<path d="M71.6715 47.085C71.6715 46.8619 67.4697 46.0574 64.5145 45.7146C62.5273 45.4841 56.9866 45.6358 54.7357 45.9824C52.8455 46.2734 50.27 46.7929 50.1569 46.9059C50.1278 46.9351 51.8795 46.963 54.0497 46.9679C56.2197 46.973 61.0724 47.0194 64.8334 47.0711C68.5944 47.1228 71.6715 47.1291 71.6715 47.085Z" fill="#6B98E1"/>
<path d="M106.36 53.24C103.814 51.7342 100.169 50.7878 95.4048 50.3958C93.3295 50.225 85.4869 50.2195 82.3006 50.3867C78.4697 50.5875 68.6229 51.3582 68.7286 51.4487C68.7493 51.4665 71.9549 51.5227 75.8522 51.5739C96.1581 51.8402 102.006 52.433 106.285 54.659C107.573 55.3292 109.093 56.681 109.874 57.8499C110.176 58.3023 110.477 58.7361 110.543 58.814C110.778 59.0905 110.099 57.2668 109.584 56.3877C108.694 54.8696 107.374 53.8393 106.36 53.24Z" fill="white"/>
<path d="M106.36 53.24C103.814 51.7342 100.169 50.7878 95.4048 50.3958C93.3295 50.225 85.4869 50.2195 82.3006 50.3867C78.4697 50.5875 68.6229 51.3582 68.7286 51.4487C68.7493 51.4665 71.9549 51.5227 75.8522 51.5739C96.1581 51.8402 102.006 52.433 106.285 54.659C107.573 55.3292 109.093 56.681 109.874 57.8499C110.176 58.3023 110.477 58.7361 110.543 58.814C110.778 59.0905 110.099 57.2668 109.584 56.3877C108.694 54.8696 107.374 53.8393 106.36 53.24Z" fill="#6B98E1"/>
<path d="M87.6151 56.5623C85.9003 56.493 80.6389 56.39 75.9231 56.3332C71.2073 56.2765 64.5748 56.2544 61.1841 56.284C52.7936 56.3576 43.8698 56.4987 43.9282 56.557C44.0128 56.6416 46.5736 56.7361 49.7046 56.7704C51.499 56.7899 52.4603 56.8427 52.043 56.8986C50.0673 57.1635 74.2973 57.0857 86.6231 56.7875L90.733 56.6882L87.6151 56.5623Z" fill="white"/>
<path d="M87.6151 56.5623C85.9003 56.493 80.6389 56.39 75.9231 56.3332C71.2073 56.2765 64.5748 56.2544 61.1841 56.284C52.7936 56.3576 43.8698 56.4987 43.9282 56.557C44.0128 56.6416 46.5736 56.7361 49.7046 56.7704C51.499 56.7899 52.4603 56.8427 52.043 56.8986C50.0673 57.1635 74.2973 57.0857 86.6231 56.7875L90.733 56.6882L87.6151 56.5623Z" fill="#6B98E1"/>
<path d="M22.1127 69.6467L22.5278 68.0959L11.0078 68.9821L22.1127 69.6467Z" fill="#D9D9D9"/>
<path d="M22.1127 69.6467L22.5278 68.0959L11.0078 68.9821L22.1127 69.6467Z" fill="url(#paint0_linear_5587_66292)"/>
<path d="M22.1127 69.6467L22.5278 68.0959L11.0078 68.9821L22.1127 69.6467Z" fill="white"/>
<path d="M22.1127 69.6467L22.5278 68.0959L11.0078 68.9821L22.1127 69.6467Z" fill="#6B98E1"/>
<path d="M21.153 72.416L21.4757 71.1975L12.3926 72.0283L21.153 72.416Z" fill="#D9D9D9"/>
<path d="M21.153 72.416L21.4757 71.1975L12.3926 72.0283L21.153 72.416Z" fill="url(#paint1_linear_5587_66292)"/>
<path d="M21.153 72.416L21.4757 71.1975L12.3926 72.0283L21.153 72.416Z" fill="white"/>
<path d="M21.153 72.416L21.4757 71.1975L12.3926 72.0283L21.153 72.416Z" fill="#6B98E1"/>
<defs>
<linearGradient id="paint0_linear_5587_66292" x1="16.657" y1="68.0959" x2="16.657" y2="69.6467" gradientUnits="userSpaceOnUse">
<stop stop-color="#FF3737"/>
<stop offset="1" stop-color="#D80D0D"/>
</linearGradient>
<linearGradient id="paint1_linear_5587_66292" x1="16.8468" y1="71.1975" x2="16.8468" y2="72.416" gradientUnits="userSpaceOnUse">
<stop stop-color="#FF3737"/>
<stop offset="1" stop-color="#D80D0D"/>
</linearGradient>
<clipPath id="clip0_5587_66292">
<rect width="87.04" height="18.0649" fill="white" transform="translate(20.9922 64.3833)"/>
</clipPath>
</defs>
</svg>
