<svg width="72" height="72" viewBox="0 0 72 72" fill="none" xmlns="http://www.w3.org/2000/svg">
<rect width="72" height="72" rx="9" fill="#010101"/>
<g clip-path="url(#clip0_7217_14229)">
<path fill-rule="evenodd" clip-rule="evenodd" d="M62.6878 41.5731C61.9704 41.002 61.0899 40.6658 60.1692 40.6115C59.6586 40.6115 59.3953 40.8104 59.3953 41.1271C59.3953 41.4258 59.7079 41.608 60.6301 41.9728C61.9143 42.4884 63.1156 43.1003 63.1156 44.594C63.1156 46.3184 61.8314 47.8103 59.2631 47.8103C57.6547 47.8327 56.0927 47.2789 54.8674 46.2518L56.4149 44.4113C57.2287 45.145 58.2782 45.5735 59.38 45.6218C59.9067 45.6218 60.1705 45.407 60.1705 45.0748C60.1705 44.7598 59.8248 44.5776 58.9522 44.2291C57.6005 43.6903 56.5488 43.0891 56.4585 41.7919H56.2675C54.5552 41.7919 53.4525 42.7535 52.8926 44.8922L52.1683 47.5916H49.0402L51.4275 38.6219H54.5539L54.0764 40.4293C54.9328 39.1526 55.9697 38.3736 57.4187 38.4728L57.0747 39.7555C57.7174 38.9429 58.8341 38.4234 60.3323 38.4234C61.7228 38.4099 63.0783 38.8532 64.1847 39.6833L62.6878 41.5731ZM44.6283 47.8073C41.9118 47.8073 40.2657 46 40.2657 43.6293C40.2738 42.2591 40.8264 40.9466 41.8051 39.9733C42.7838 39 44.1106 38.4434 45.5008 38.423C48.2335 38.423 49.88 40.2303 49.88 42.5847C49.8748 43.9601 49.3214 45.2784 48.339 46.2554C47.3566 47.2323 46.0239 47.7897 44.6283 47.8073ZM45.336 41.0425C44.1011 41.0425 43.2618 42.3522 43.2618 43.5128C43.2618 44.5407 43.8875 45.1887 44.8093 45.1887C46.0441 45.1887 46.8835 43.8789 46.8835 42.7016C46.8835 41.6892 46.2582 41.0425 45.336 41.0425ZM40.7576 41.1585H38.6851L37.9277 43.9769C37.882 44.1561 37.8544 44.3394 37.8453 44.5239C37.8453 44.8887 38.0594 45.0877 38.553 45.0877C38.9599 45.0737 39.3612 44.9895 39.7386 44.8389L39.047 47.4601C38.455 47.6667 37.8315 47.7722 37.2034 47.7721C35.3925 47.7721 34.5035 46.9762 34.5035 45.6497C34.5061 45.252 34.5615 44.8563 34.6683 44.4728L35.5574 41.1568H34.5035L35.1785 38.6215H36.2319L36.8424 36.3501H39.9701L39.3596 38.6215H41.4339L40.7576 41.1585ZM29.0891 47.8073C26.3726 47.8073 24.7266 46 24.7266 43.6293C24.7346 42.2592 25.2872 40.9467 26.2658 39.9734C27.2444 39.0001 28.571 38.4435 29.9612 38.423C32.6939 38.423 34.3404 40.2303 34.3404 42.5847C34.3352 43.96 33.7818 45.2783 32.7995 46.2552C31.8172 47.2322 30.4847 47.7896 29.0891 47.8073ZM29.7968 41.0425C28.562 41.0425 27.7226 42.3522 27.7226 43.5128C27.7226 44.5407 28.3483 45.1887 29.2701 45.1887C30.505 45.1887 31.3443 43.8789 31.3443 42.7016C31.343 41.6892 30.7173 41.0425 29.7951 41.0425H29.7968Z" fill="white"/>
<path fill-rule="evenodd" clip-rule="evenodd" d="M24.5935 42.7174L23.2933 47.592H20.1817L21.4152 42.9001C21.4832 42.662 21.5218 42.4167 21.5303 42.1696C21.5483 42.0417 21.536 41.9114 21.4944 41.7889C21.4529 41.6665 21.3831 41.5551 21.2907 41.4636C21.1982 41.3721 21.0856 41.3029 20.9615 41.2613C20.8374 41.2198 20.7053 41.2071 20.5754 41.2242C19.7356 41.2242 19.2237 41.8211 18.9455 42.8489L17.6792 47.592H14.5511L15.8021 42.9001C15.87 42.662 15.9087 42.4167 15.9172 42.1696C15.9337 42.0419 15.9204 41.9123 15.8783 41.7905C15.8363 41.6686 15.7665 41.5579 15.6744 41.4667C15.5823 41.3755 15.4702 41.3063 15.3468 41.2642C15.2234 41.2222 15.0919 41.2085 14.9623 41.2242C14.904 41.2246 14.8458 41.228 14.7879 41.2345H10.6289L11.3266 38.6215H14.4547L14.1931 39.6163C14.5016 39.2593 14.8816 38.9691 15.3093 38.7636C15.737 38.5582 16.2032 38.4421 16.6785 38.4226C17.1857 38.3924 17.6886 38.5292 18.1082 38.8115C18.5278 39.0938 18.8403 39.5055 18.9965 39.982C19.3834 39.5026 19.8737 39.1141 20.4318 38.8446C20.9898 38.575 21.6018 38.4312 22.2232 38.4234C23.919 38.4234 24.8573 39.4513 24.8573 41.0927C24.8356 41.6427 24.747 42.1882 24.5935 42.7174ZM13.3655 42.7394C13.3546 42.7759 13.3433 42.812 13.3328 42.8502L12.0652 47.592H8.9375L10.2286 42.7394H13.3655Z" fill="#6B98E1"/>
</g>
<path d="M44.0111 25.0868C41.8806 23.8813 39.0706 22.9861 36.5096 22.6969C35.5462 22.5882 32.4198 22.5831 31.2015 22.6884C26.7475 23.0731 21.5088 24.3901 15.4572 26.6463C12.0976 27.8989 10.575 28.355 9.16942 28.5296C8.48288 28.6149 8.09153 28.6037 7.45015 28.4808C7.23701 28.44 7.23935 28.4467 7.49513 28.6095C8.40407 29.1879 8.71841 30.1703 8.55539 31.9233L8.47884 32.7472L9.0064 32.1714C9.86568 31.2337 11.2745 30.6501 12.827 30.5888C13.1355 30.5766 13.3875 30.5448 13.387 30.5181C13.3865 30.4914 13.0787 30.3543 12.7029 30.2135C12.3272 30.0726 12.0544 29.9247 12.0966 29.8848C12.3339 29.6605 15.1648 28.957 16.9582 28.6767C18.5568 28.4268 20.9795 28.1861 22.996 28.077C24.9525 27.971 31.6714 28.0176 32.2362 28.141C32.3846 28.1734 32.4762 28.1679 32.4397 28.1288C32.3439 28.0261 27.1714 27.568 23.3294 27.3221C20.7896 27.1594 20.2933 27.0429 20.5945 26.68C20.7946 26.4388 21.493 26.1374 22.8352 25.7127C27.7809 24.1479 32.0028 23.499 35.5948 23.7515C40.2336 24.0777 43.5477 25.0361 46.4735 26.8977C46.5849 26.9686 46.6759 27.0043 46.6759 26.977C46.6759 26.8602 44.8254 25.5475 44.0111 25.0868Z" fill="#6B98E1"/>
<path d="M41.098 25.3629C41.098 25.2213 38.4306 24.7106 36.5546 24.4929C35.2931 24.3467 31.7757 24.4429 30.3468 24.663C29.1469 24.8477 27.5119 25.1775 27.4401 25.2492C27.4216 25.2677 28.5336 25.2855 29.9113 25.2886C31.2889 25.2919 34.3695 25.3213 36.757 25.3541C39.1446 25.3869 41.098 25.3909 41.098 25.3629Z" fill="#6B98E1"/>
<path d="M63.1191 29.2702C61.5027 28.3143 59.1887 27.7135 56.1643 27.4647C54.8469 27.3562 49.8682 27.3527 47.8455 27.4589C45.4136 27.5864 39.1627 28.0756 39.2298 28.1331C39.2429 28.1444 41.2779 28.1801 43.752 28.2126C56.6425 28.3816 60.3548 28.7579 63.071 30.1711C63.8888 30.5965 64.8539 31.4546 65.3494 32.1967C65.5411 32.4838 65.7323 32.7592 65.7743 32.8087C65.9234 32.9842 65.4925 31.8265 65.1655 31.2685C64.6008 30.3047 63.7625 29.6507 63.1191 29.2702Z" fill="#6B98E1"/>
<path d="M51.2193 31.3793C50.1307 31.3353 46.7906 31.2699 43.797 31.2338C40.8033 31.1979 36.5928 31.1838 34.4404 31.2026C29.1139 31.2493 23.449 31.3389 23.486 31.3759C23.5397 31.4296 25.1654 31.4896 27.153 31.5114C28.2921 31.5238 28.9023 31.5573 28.6375 31.5928C27.3832 31.761 42.7649 31.7116 50.5895 31.5223L53.1986 31.4592L51.2193 31.3793Z" fill="#6B98E1"/>
<path d="M9.64335 39.6861L9.90686 38.7017L2.59375 39.2642L9.64335 39.6861Z" fill="#6B98E1"/>
<path d="M9.03785 41.4439L9.24267 40.6704L3.47656 41.1978L9.03785 41.4439Z" fill="#6B98E1"/>
<defs>
<clipPath id="clip0_7217_14229">
<rect width="55.2546" height="11.4679" fill="white" transform="translate(8.92969 36.3447)"/>
</clipPath>
</defs>
</svg>
