<svg width="214" height="64" viewBox="0 0 214 64" fill="none" xmlns="http://www.w3.org/2000/svg">
<path fill-rule="evenodd" clip-rule="evenodd" d="M191.789 16.6798L196.194 0.279785H201.891L203.357 4.55348L207.111 0.279785H213.579L209.174 16.6798H202.793L204.077 11.8546L202.002 14.1198H200.565L199.531 11.3879L198.115 16.6798H191.789ZM199.334 7.47979L201.394 12.9198H201.474L206.494 7.43979L204.354 15.4798H208.254L212.014 1.47979H207.654L202.894 6.89979L201.034 1.47979H197.114L193.354 15.4798H197.194L199.334 7.47979Z" fill="white"/>
<path fill-rule="evenodd" clip-rule="evenodd" d="M178.676 15.3674L178.669 15.3614C177.377 14.2258 176.781 12.6642 176.781 10.8398C176.781 10.0362 176.907 9.18564 177.141 8.29533L177.143 8.28734L179.302 0.279785H185.705L183.32 9.18996L183.32 9.19288C183.206 9.61477 183.161 9.94648 183.161 10.1998C183.161 10.5839 183.262 10.7437 183.347 10.8286C183.452 10.9227 183.666 11.0398 184.141 11.0398C184.614 11.0398 184.926 10.8983 185.173 10.6513L185.184 10.6398L185.196 10.6286C185.472 10.3675 185.787 9.83994 186.041 8.87511L186.043 8.86684L188.362 0.279785H194.765L192.14 10.0705L192.14 10.0727C191.612 12.026 190.805 13.6328 189.65 14.7883C188.16 16.2784 186.094 16.9398 183.641 16.9398C181.662 16.9398 179.952 16.4703 178.676 15.3674ZM182.521 11.6998C182.148 11.3398 181.961 10.8398 181.961 10.1998C181.961 9.81312 182.028 9.37312 182.161 8.87979L184.141 1.47979H180.221L178.301 8.59979C178.088 9.41312 177.981 10.1598 177.981 10.8398C177.981 12.3865 178.475 13.5931 179.461 14.4598C180.448 15.3131 181.841 15.7398 183.641 15.7398C185.881 15.7398 187.601 15.1398 188.801 13.9398C189.761 12.9798 190.488 11.5865 190.981 9.75979L193.201 1.47979H189.281L187.201 9.17979C186.921 10.2465 186.528 11.0198 186.021 11.4998C185.528 11.9931 184.901 12.2398 184.141 12.2398C183.448 12.2398 182.908 12.0598 182.521 11.6998Z" fill="white"/>
<path fill-rule="evenodd" clip-rule="evenodd" d="M166.992 16.6798L171.397 0.279785H177.762L173.357 16.6798H166.992ZM168.557 15.4798H172.437L176.197 1.47979H172.317L168.557 15.4798Z" fill="white"/>
<path fill-rule="evenodd" clip-rule="evenodd" d="M147.969 16.6798L152.373 0.279785H158.07L159.537 4.55348L163.29 0.279785H169.758L165.354 16.6798H158.972L160.257 11.8546L158.182 14.1198H156.745L155.71 11.3879L154.295 16.6798H147.969ZM155.514 7.47979L157.574 12.9198H157.654L162.674 7.43979L160.534 15.4798H164.434L168.194 1.47979H163.834L159.074 6.89979L157.214 1.47979H153.294L149.534 15.4798H153.374L155.514 7.47979Z" fill="white"/>
<path fill-rule="evenodd" clip-rule="evenodd" d="M132.984 16.6798L137.389 0.279785H151.1L149.546 5.97979H148.858L147.518 10.9798H148.311L146.791 16.6798H132.984ZM139.869 9.95979H146.549L147.369 6.89979H140.689L141.269 4.77979H148.629L149.529 1.47979H138.309L134.549 15.4798H145.869L146.749 12.1798H139.269L139.869 9.95979Z" fill="white"/>
<path fill-rule="evenodd" clip-rule="evenodd" d="M116.992 16.6798L121.397 0.279785H127.597C129.965 0.279785 131.961 0.78671 133.266 2.09126C134.248 3.07355 134.697 4.35172 134.697 5.79979C134.697 7.25441 134.262 8.56106 133.367 9.65811C132.738 10.4315 131.912 11.0205 130.933 11.4521L133.326 16.6798H126.393L124.533 12.4398H124.517L123.377 16.6798H116.992ZM125.317 11.2398L127.177 15.4798H131.457L129.297 10.7598C129.706 10.6468 130.085 10.5138 130.434 10.3609C131.279 9.99072 131.946 9.50368 132.437 8.89979C133.144 8.03312 133.497 6.99979 133.497 5.79979C133.497 4.61312 133.137 3.65979 132.417 2.93979C131.444 1.96645 129.837 1.47979 127.597 1.47979H122.317L118.557 15.4798H122.457L123.597 11.2398H125.317ZM125.97 6.99979H126.617C127.353 6.99979 127.794 6.85308 128.051 6.68132C128.254 6.54613 128.297 6.43897 128.297 6.25979C128.297 6.21694 128.292 6.19059 128.277 6.16447C128.255 6.1531 128.214 6.13493 128.144 6.11562C127.995 6.07381 127.76 6.03979 127.417 6.03979H126.233L125.97 6.99979ZM124.397 8.19979L125.317 4.83979H127.417C128.244 4.83979 128.817 4.99979 129.137 5.31979C129.377 5.58645 129.497 5.89979 129.497 6.25979C129.497 6.85979 129.237 7.33312 128.717 7.67979C128.197 8.02645 127.497 8.19979 126.617 8.19979H124.397Z" fill="white"/>
<path fill-rule="evenodd" clip-rule="evenodd" d="M101.953 16.6798L106.358 0.279785H111.858C114.209 0.279785 116.193 0.79802 117.506 2.11126C118.495 3.09993 118.958 4.37375 118.958 5.81979C118.958 7.88351 118.168 9.60906 116.589 10.8759L116.588 10.8768C115.053 12.1045 113.084 12.6598 110.798 12.6598H109.418L108.338 16.6798H101.953ZM108.498 11.4598H110.798C112.891 11.4598 114.571 10.9531 115.838 9.93979C117.118 8.91312 117.758 7.53979 117.758 5.81979C117.758 4.64645 117.391 3.69312 116.658 2.95979C115.671 1.97312 114.071 1.47979 111.858 1.47979H107.278L103.518 15.4798H107.418L108.498 11.4598ZM109.298 8.43979L110.278 4.73979H111.718C112.465 4.73979 113.018 4.91979 113.378 5.27979C113.645 5.54645 113.778 5.87312 113.778 6.25979C113.778 6.92645 113.511 7.45979 112.978 7.85979C112.445 8.24645 111.705 8.43979 110.758 8.43979H109.298ZM112.266 6.89379C112.019 7.06967 111.589 7.22592 110.857 7.23891L111.201 5.93979H111.718C112.294 5.93979 112.481 6.07998 112.529 6.12831C112.558 6.15661 112.565 6.17274 112.567 6.17826C112.569 6.18439 112.578 6.20697 112.578 6.25979C112.578 6.54542 112.491 6.7223 112.266 6.89379Z" fill="white"/>
<path fill-rule="evenodd" clip-rule="evenodd" d="M78.7734 16.6798L83.178 0.279785H89.5674L88.7807 3.17824L91.7723 0.279785H100.25L92.0163 7.93958L95.4857 16.6798H88.6859L86.9979 12.1672L86.1486 12.9463L85.1624 16.6798H78.7734ZM85.0782 12.2998L87.4982 10.0798L89.5182 15.4798H93.7182L90.5983 7.61979L97.1982 1.47979H92.2582L86.4782 7.07979L87.9982 1.47979H84.0982L80.3382 15.4798H84.2383L85.0782 12.2998Z" fill="white"/>
<path fill-rule="evenodd" clip-rule="evenodd" d="M77.0882 13.9836C75.6964 15.1679 74.0289 15.76 72.0856 15.76C70.1256 15.76 68.5323 15.2067 67.3056 14.1C66.079 12.98 65.4656 11.4933 65.4656 9.64C65.4656 8.24 65.8123 6.90667 66.5056 5.64C67.199 4.36 68.2256 3.3 69.5856 2.46C70.9456 1.62 72.4856 1.2 74.2056 1.2C75.6056 1.2 76.7923 1.51333 77.7656 2.14C78.7523 2.76667 79.459 3.63333 79.8856 4.74L76.5256 6.54C76.4768 6.44008 76.4255 6.34431 76.3717 6.25271C75.78 5.24424 74.8913 4.74 73.7056 4.74C72.559 4.74 71.5723 5.2 70.7456 6.12C69.9323 7.04 69.5256 8.12 69.5256 9.36C69.5256 10.24 69.7856 10.94 70.3056 11.46C70.8256 11.98 71.499 12.24 72.3256 12.24C73.379 12.24 74.379 11.7667 75.3256 10.82L77.9456 13.14C77.6725 13.4484 77.3867 13.7296 77.0882 13.9836ZM71.6414 6.91855C71.0263 7.61594 70.7256 8.41131 70.7256 9.36C70.7256 9.98878 70.9025 10.3599 71.1542 10.6115C71.4203 10.8777 71.7741 11.04 72.3256 11.04C72.9803 11.04 73.6914 10.7572 74.4771 9.97147L75.2757 9.17291L79.6396 13.0371L78.844 13.9355C77.0666 15.9428 74.7846 16.96 72.0856 16.96C69.8872 16.96 67.9889 16.3326 66.5018 14.991L66.4965 14.9862C64.9905 13.6112 64.2656 11.7872 64.2656 9.64C64.2656 8.03254 64.6659 6.50214 65.4524 5.06492C66.2551 3.5845 67.4359 2.37735 68.955 1.43904C70.519 0.473075 72.2805 0 74.2056 0C75.7859 0 77.2084 0.355044 78.4119 1.12891C79.6174 1.89539 80.4881 2.96679 81.0053 4.30832L81.3866 5.29727L75.9945 8.18586L75.4476 7.06705C75.2318 6.62576 74.9852 6.36124 74.735 6.20151C74.487 6.04325 74.1608 5.94 73.7056 5.94C72.9298 5.94 72.2597 6.23195 71.6414 6.91855Z" fill="white"/>
<path fill-rule="evenodd" clip-rule="evenodd" d="M48.6444 14.827L48.6395 14.8224C47.1549 13.3856 46.4141 11.5694 46.4141 9.46002C46.4141 8.24508 46.6533 7.06294 47.1251 5.92163L47.1303 5.90906L47.1303 5.90909C47.6107 4.78322 48.2612 3.78207 49.0829 2.91473C49.922 2.02908 50.9376 1.33347 52.1115 0.821334C53.3215 0.285822 54.6064 0.0200195 55.9541 0.0200195C58.1894 0.0200195 60.1104 0.70901 61.6064 2.1556C63.0938 3.58033 63.8341 5.39176 63.8341 7.50002C63.8341 8.7183 63.5868 9.90277 63.1004 11.0449C62.633 12.1734 61.9881 13.1767 61.1652 14.0453C60.3256 14.9316 59.3039 15.6327 58.1201 16.1572L58.1136 16.1601C56.9154 16.6823 55.638 16.94 54.2941 16.94C52.0615 16.94 50.1413 16.2595 48.6444 14.827ZM61.9941 10.58C62.4207 9.58002 62.6341 8.55335 62.6341 7.50002C62.6341 5.70002 62.0141 4.20669 60.7741 3.02002C59.5341 1.82002 57.9274 1.22002 55.9541 1.22002C54.7674 1.22002 53.6474 1.45335 52.5941 1.92002C51.5541 2.37335 50.6741 2.98002 49.9541 3.74002C49.2341 4.50002 48.6607 5.38002 48.2341 6.38002C47.8207 7.38002 47.6141 8.40669 47.6141 9.46002C47.6141 11.26 48.2341 12.76 49.4741 13.96C50.7141 15.1467 52.3207 15.74 54.2941 15.74C55.4807 15.74 56.5941 15.5134 57.6341 15.06C58.6874 14.5934 59.5741 13.98 60.2941 13.22C61.0141 12.46 61.5807 11.58 61.9941 10.58ZM56.9856 6.38811L56.9805 6.38276L56.9754 6.37734C56.719 6.10164 56.3218 5.90002 55.6141 5.90002C54.8309 5.90002 54.1976 6.19213 53.6413 6.8618C53.0416 7.59985 52.7741 8.35569 52.7741 9.16002C52.7741 9.82936 52.9593 10.2645 53.2476 10.5772C53.521 10.8611 53.9318 11.06 54.6341 11.06C55.4411 11.06 56.0702 10.7663 56.6061 10.1191C57.204 9.38367 57.4741 8.62144 57.4741 7.80002C57.4741 7.13499 57.2852 6.70239 56.9856 6.38811ZM52.3741 11.4C51.8407 10.8267 51.5741 10.08 51.5741 9.16002C51.5741 8.05335 51.9541 7.03335 52.7141 6.10002C53.4874 5.16669 54.4541 4.70002 55.6141 4.70002C56.5741 4.70002 57.3207 4.98669 57.8541 5.56002C58.4007 6.13335 58.6741 6.88002 58.6741 7.80002C58.6741 8.92002 58.2941 9.94669 57.5341 10.88C56.7741 11.8 55.8074 12.26 54.6341 12.26C53.6741 12.26 52.9207 11.9734 52.3741 11.4Z" fill="white"/>
<path fill-rule="evenodd" clip-rule="evenodd" d="M32.2344 16.6798L36.6389 0.279785H43.023L40.183 10.8798H46.867L45.2976 16.6798H32.2344ZM38.6192 12.0798L41.4592 1.47979H37.5592L33.7992 15.4798H44.3792L45.2992 12.0798H38.6192Z" fill="white"/>
<path fill-rule="evenodd" clip-rule="evenodd" d="M15.0078 16.6798L19.4124 0.279785H24.7178L27.2719 5.769L28.7536 0.279785H35.0974L30.6929 16.6798H25.61L22.9012 10.904L21.3534 16.6798H15.0078ZM22.5926 7.41979L26.3726 15.4798H29.7726L33.5326 1.47979H29.6726L27.5726 9.25979L23.9526 1.47979H20.3326L16.5726 15.4798H20.4326L22.5926 7.41979Z" fill="white"/>
<path fill-rule="evenodd" clip-rule="evenodd" d="M1.88807 15.3614C0.595299 14.2258 0 12.6642 0 10.8398C0 10.0362 0.12574 9.18564 0.359264 8.29533L0.361359 8.28734L2.52073 0.279785H8.92329L6.53844 9.19288C6.42441 9.61477 6.38 9.94648 6.38 10.1998C6.38 10.5839 6.48082 10.7437 6.56546 10.8286C6.67064 10.9227 6.88469 11.0398 7.36 11.0398C7.83306 11.0398 8.1444 10.8983 8.39147 10.6513L8.40294 10.6398L8.41471 10.6286C8.69034 10.3675 9.00605 9.83994 9.25932 8.87511L9.26149 8.86684L11.5811 0.279785H17.9841L15.3585 10.0727C14.8309 12.026 14.024 13.6328 12.8685 14.7883C11.3785 16.2784 9.31269 16.9398 6.86 16.9398C4.88111 16.9398 3.17026 16.4703 1.89502 15.3674L1.88807 15.3614ZM5.74 11.6998C5.36667 11.3398 5.18 10.8398 5.18 10.1998C5.18 9.81312 5.24667 9.37312 5.38 8.87979L7.36 1.47979H3.44L1.52 8.59979C1.30667 9.41312 1.2 10.1598 1.2 10.8398C1.2 12.3865 1.69333 13.5931 2.68 14.4598C3.66667 15.3131 5.06 15.7398 6.86 15.7398C9.1 15.7398 10.82 15.1398 12.02 13.9398C12.98 12.9798 13.7067 11.5865 14.2 9.75979L16.42 1.47979H12.5L10.42 9.17979C10.14 10.2465 9.74667 11.0198 9.24 11.4998C8.74667 11.9931 8.12 12.2398 7.36 12.2398C6.66667 12.2398 6.12667 12.0598 5.74 11.6998Z" fill="white"/>
<path fill-rule="evenodd" clip-rule="evenodd" d="M124.023 40.6002L128.428 24.2002H134.817L133.397 29.4402H135.847L137.247 24.2002H143.633L139.228 40.6002H132.84L134.28 35.2802H131.83L130.41 40.6002H124.023ZM130.908 34.0802H135.848L134.408 39.4002H138.308L142.068 25.4002H138.168L136.768 30.6402H131.828L133.248 25.4002H129.348L125.588 39.4002H129.488L130.908 34.0802Z" fill="white"/>
<path fill-rule="evenodd" clip-rule="evenodd" d="M112.794 40.6002L115.654 30.0002H111.453L113.023 24.2002H127.76L126.225 30.0002H122.022L119.182 40.6002H112.794ZM121.101 28.8002H125.301L126.201 25.4002H113.941L113.021 28.8002H117.221L114.361 39.4002H118.261L121.101 28.8002Z" fill="white"/>
<path fill-rule="evenodd" clip-rule="evenodd" d="M101.531 40.6002L105.936 24.2002H112.301L107.896 40.6002H101.531ZM103.096 39.4002H106.976L110.736 25.4002H106.856L103.096 39.4002Z" fill="white"/>
<path fill-rule="evenodd" clip-rule="evenodd" d="M81.7173 40.7002L80.6641 24.2002H87.1252L87.2907 29.3566L90.3805 24.1602H95.5461L95.8956 29.4281L98.8646 24.2002H105.903L96.0025 40.7002H90.7357L90.3011 35.2946L86.9735 40.7002H81.7173ZM91.2031 31.5402L91.8431 39.5002H95.3231L103.783 25.4002H99.5631L94.9631 33.5002L94.4231 25.3602H91.0631L86.2231 33.5002L85.9631 25.4002H81.9431L82.8431 39.5002H86.3031L91.2031 31.5402Z" fill="white"/>
<path fill-rule="evenodd" clip-rule="evenodd" d="M55.8516 37.0629L59.8483 32.9382C59.0773 32.1227 58.7259 31.0796 58.7259 29.92C58.7259 28.1543 59.4632 26.6741 60.8577 25.5618C62.2306 24.4668 63.9306 23.96 65.8659 23.96C68.488 23.96 70.718 24.7341 72.4343 26.3718L73.2755 27.1744L69.5655 31.3172C69.6735 31.4067 69.7769 31.4985 69.8754 31.5928C70.7609 32.4398 71.1659 33.5517 71.1659 34.8C71.1659 36.6018 70.4423 38.1138 69.0368 39.236C67.6719 40.3366 65.9611 40.84 64.0059 40.84C60.9907 40.84 58.4815 39.8917 56.6271 37.897L55.8516 37.0629ZM68.2859 38.3C69.4059 37.4066 69.9659 36.24 69.9659 34.8C69.9659 33.8266 69.6593 33.0466 69.0459 32.46C68.4326 31.8733 67.5259 31.3533 66.3259 30.9C65.3259 30.5 64.6859 30.2133 64.4059 30.04C64.1259 29.8666 63.9859 29.6466 63.9859 29.38C63.9859 29.0866 64.1259 28.8466 64.4059 28.66C64.6859 28.4733 65.0526 28.38 65.5059 28.38C66.7859 28.38 68.0193 28.8933 69.2059 29.92L71.6059 27.24C71.6059 27.24 71.6059 27.24 71.6059 27.24C71.4939 27.1332 71.3792 27.0304 71.2618 26.9318C71.0719 26.7723 70.8748 26.6236 70.6706 26.4857C69.3622 25.6019 67.7607 25.16 65.8659 25.16C64.1459 25.16 62.7259 25.6066 61.6059 26.5C60.4859 27.3933 59.9259 28.5333 59.9259 29.92C59.9259 30.88 60.2259 31.6466 60.8259 32.22C61.4259 32.7933 62.3393 33.3133 63.5659 33.78C64.5393 34.1533 65.1726 34.44 65.4659 34.64C65.7593 34.84 65.9059 35.08 65.9059 35.36C65.9059 35.68 65.7593 35.9333 65.4659 36.12C65.1726 36.3066 64.7926 36.4 64.3259 36.4C62.8193 36.4 61.3793 35.7666 60.0059 34.5L57.5059 37.08C57.6956 37.284 57.8936 37.4758 58.0998 37.6554C58.1941 37.7376 58.2902 37.8171 58.3879 37.8942C59.8651 39.058 61.7377 39.64 64.0059 39.64C65.7526 39.64 67.1793 39.1933 68.2859 38.3ZM63.1379 34.901C63.3932 34.999 63.6159 35.0877 63.8087 35.1673C63.0124 35.066 62.2026 34.7253 61.3724 34.0857" fill="white"/>
<path fill-rule="evenodd" clip-rule="evenodd" d="M38.9375 40.6002L43.3421 24.2002H48.6475L51.2016 29.6894L52.6833 24.2002H59.0271L54.6225 40.6002H49.5397L46.8309 34.8244L45.2831 40.6002H38.9375ZM46.5223 31.3402L50.3023 39.4002H53.7023L57.4623 25.4002H53.6023L51.5023 33.1802L47.8823 25.4002H44.2623L40.5023 39.4002H44.3623L46.5223 31.3402Z" fill="white"/>
<path fill-rule="evenodd" clip-rule="evenodd" d="M30.9375 40.6002L35.3421 24.2002H41.7071L37.3026 40.6002H30.9375ZM32.5023 39.4002H36.3823L40.1423 25.4002H36.2623L32.5023 39.4002Z" fill="white"/>
<path fill-rule="evenodd" clip-rule="evenodd" d="M14.7969 40.6002L19.2014 24.2002H25.5908L24.8041 27.0986L27.7957 24.2002H36.2734L28.0397 31.86L31.5091 40.6002H24.7094L23.0213 36.0876L22.1721 36.8667L21.1859 40.6002H14.7969ZM21.1017 36.2202L23.5217 34.0002L25.5417 39.4002H29.7417L26.6217 31.5402L33.2217 25.4002H28.2817L22.5017 31.0002L24.0217 25.4002H20.1217L16.3617 39.4002H20.2617L21.1017 36.2202Z" fill="white"/>
<path fill-rule="evenodd" clip-rule="evenodd" d="M0 37.0629L3.99676 32.9382C3.22573 32.1227 2.87438 31.0796 2.87438 29.92C2.87438 28.1543 3.61163 26.6741 5.00611 25.5618C6.37899 24.4668 8.079 23.96 10.0144 23.96C12.6364 23.96 14.8664 24.7341 16.5828 26.3718L17.424 27.1744L13.714 31.3172C13.822 31.4067 13.9253 31.4985 14.0238 31.5928C14.9093 32.4398 15.3144 33.5517 15.3144 34.8C15.3144 36.6018 14.5908 38.1138 13.1853 39.236C11.8204 40.3366 10.1095 40.84 8.15438 40.84C5.13916 40.84 2.62991 39.8917 0.775518 37.897L0 37.0629ZM12.4344 38.3C13.5544 37.4066 14.1144 36.24 14.1144 34.8C14.1144 33.8266 13.8077 33.0466 13.1944 32.46C12.581 31.8733 11.6744 31.3533 10.4744 30.9C9.47438 30.5 8.83438 30.2133 8.55438 30.04C8.27438 29.8666 8.13438 29.6466 8.13438 29.38C8.13438 29.0866 8.27438 28.8466 8.55438 28.66C8.83438 28.4733 9.20105 28.38 9.65438 28.38C10.9344 28.38 12.1677 28.8933 13.3544 29.92L15.7544 27.24C15.6424 27.1331 15.5277 27.0304 15.4102 26.9317C15.2203 26.7723 15.0232 26.6236 14.819 26.4857C13.5107 25.6019 11.9091 25.16 10.0144 25.16C8.29438 25.16 6.87438 25.6066 5.75438 26.5C4.63438 27.3933 4.07438 28.5333 4.07438 29.92C4.07438 30.88 4.37438 31.6466 4.97438 32.22C5.57438 32.7933 6.48771 33.3133 7.71438 33.78C8.68771 34.1533 9.32105 34.44 9.61438 34.64C9.90771 34.84 10.0544 35.08 10.0544 35.36C10.0544 35.68 9.90771 35.9333 9.61438 36.12C9.32105 36.3066 8.94105 36.4 8.47438 36.4C6.96771 36.4 5.52771 35.7666 4.15438 34.5L1.65438 37.08C1.84406 37.284 2.04203 37.4758 2.24829 37.6555C2.34258 37.7376 2.43861 37.8171 2.53637 37.8942C4.01351 39.058 5.88618 39.64 8.15438 39.64C9.90105 39.64 11.3277 39.1933 12.4344 38.3ZM7.28635 34.901C6.63944 34.6549 6.04696 34.3849 5.52085 34.0857C6.35107 34.7253 7.16085 35.066 7.95714 35.1673C7.7644 35.0877 7.54166 34.999 7.28635 34.901ZM8.96039 35.6479C8.96076 35.6483 8.96039 35.6479 8.96039 35.6479ZM9.17884 29.015C9.17883 29.015 9.17847 29.0147 9.17884 29.015Z" fill="white"/>
<path d="M0 63.5258L4.136 48.1258H8.448L10.494 54.0878L15.73 48.1258H20.526L16.39 63.5258H12.1L14.454 54.6818L8.932 60.7098H8.844L6.578 54.7258L4.224 63.5258H0Z" fill="white"/>
<path d="M27.8126 63.8118C25.642 63.8118 23.8746 63.1592 22.5106 61.8538C21.1466 60.5338 20.4646 58.8838 20.4646 56.9038C20.4646 55.7452 20.692 54.6158 21.1466 53.5158C21.616 52.4158 22.2466 51.4478 23.0386 50.6118C23.8306 49.7758 24.7986 49.1085 25.9426 48.6098C27.1013 48.0965 28.3333 47.8398 29.6386 47.8398C31.8093 47.8398 33.5766 48.4998 34.9406 49.8198C36.3046 51.1252 36.9866 52.7678 36.9866 54.7478C36.9866 55.9065 36.752 57.0358 36.2826 58.1358C35.828 59.2358 35.2046 60.2038 34.4126 61.0398C33.6206 61.8758 32.6453 62.5505 31.4866 63.0638C30.3426 63.5625 29.118 63.8118 27.8126 63.8118ZM28.1866 59.9838C29.4773 59.9838 30.5406 59.4778 31.3766 58.4658C32.2126 57.4392 32.6306 56.3098 32.6306 55.0778C32.6306 54.0658 32.33 53.2445 31.7286 52.6138C31.142 51.9832 30.3206 51.6678 29.2646 51.6678C27.9886 51.6678 26.9253 52.1812 26.0746 53.2078C25.2386 54.2345 24.8206 55.3565 24.8206 56.5738C24.8206 57.5858 25.114 58.4072 25.7006 59.0378C26.302 59.6685 27.1306 59.9838 28.1866 59.9838Z" fill="white"/>
<path d="M39.336 63.5258L42.482 51.8658H37.862L38.874 48.1258H52.36L51.37 51.8658H46.75L43.626 63.5258H39.336Z" fill="white"/>
<path d="M58.6857 63.8118C56.515 63.8118 54.7477 63.1592 53.3837 61.8538C52.0197 60.5338 51.3377 58.8838 51.3377 56.9038C51.3377 55.7452 51.565 54.6158 52.0197 53.5158C52.489 52.4158 53.1197 51.4478 53.9117 50.6118C54.7037 49.7758 55.6717 49.1085 56.8157 48.6098C57.9744 48.0965 59.2064 47.8398 60.5117 47.8398C62.6824 47.8398 64.4497 48.4998 65.8137 49.8198C67.1777 51.1252 67.8597 52.7678 67.8597 54.7478C67.8597 55.9065 67.625 57.0358 67.1557 58.1358C66.701 59.2358 66.0777 60.2038 65.2857 61.0398C64.4937 61.8758 63.5184 62.5505 62.3597 63.0638C61.2157 63.5625 59.991 63.8118 58.6857 63.8118ZM59.0597 59.9838C60.3504 59.9838 61.4137 59.4778 62.2497 58.4658C63.0857 57.4392 63.5037 56.3098 63.5037 55.0778C63.5037 54.0658 63.203 53.2445 62.6017 52.6138C62.015 51.9832 61.1937 51.6678 60.1377 51.6678C58.8617 51.6678 57.7984 52.1812 56.9477 53.2078C56.1117 54.2345 55.6937 55.3565 55.6937 56.5738C55.6937 57.5858 55.987 58.4072 56.5737 59.0378C57.175 59.6685 58.0037 59.9838 59.0597 59.9838Z" fill="white"/>
<path d="M67.8262 63.5258L71.9622 48.1258H77.7702C80.2342 48.1258 82.0015 48.6612 83.0722 49.7318C83.8642 50.5238 84.2602 51.5725 84.2602 52.8778C84.2602 54.1978 83.8715 55.3345 83.0942 56.2878C82.3315 57.2265 81.1802 57.9085 79.6402 58.3338L82.0162 63.5258H77.3082L75.2622 58.8618H73.3702L72.1162 63.5258H67.8262ZM74.2502 55.5178H76.6922C77.6602 55.5178 78.4302 55.3272 79.0022 54.9458C79.5742 54.5645 79.8602 54.0438 79.8602 53.3838C79.8602 52.9878 79.7282 52.6432 79.4642 52.3498C79.1122 51.9978 78.4815 51.8218 77.5722 51.8218H75.2622L74.2502 55.5178Z" fill="white"/>
<path d="M90.5682 63.7898C87.5468 63.7898 85.1635 62.8512 83.4182 60.9738L86.1682 58.1358C87.6788 59.5292 89.2628 60.2258 90.9202 60.2258C91.4335 60.2258 91.8515 60.1232 92.1742 59.9178C92.4968 59.7125 92.6582 59.4338 92.6582 59.0818C92.6582 58.7738 92.4968 58.5098 92.1742 58.2898C91.8515 58.0698 91.1548 57.7545 90.0842 57.3438C88.7348 56.8305 87.7302 56.2585 87.0702 55.6278C86.4102 54.9972 86.0802 54.1538 86.0802 53.0978C86.0802 51.5725 86.6962 50.3185 87.9282 49.3358C89.1602 48.3532 90.7222 47.8618 92.6142 47.8618C95.2248 47.8618 97.3295 48.6245 98.9282 50.1498L96.2882 53.0978C94.9828 51.9685 93.6262 51.4038 92.2182 51.4038C91.7195 51.4038 91.3162 51.5065 91.0082 51.7118C90.7002 51.9172 90.5462 52.1812 90.5462 52.5038C90.5462 52.7972 90.7002 53.0392 91.0082 53.2298C91.3162 53.4205 92.0202 53.7358 93.1202 54.1758C94.4402 54.6745 95.4375 55.2465 96.1122 55.8918C96.7868 56.5372 97.1242 57.3952 97.1242 58.4658C97.1242 60.0498 96.5082 61.3332 95.2762 62.3158C94.0588 63.2985 92.4895 63.7898 90.5682 63.7898Z" fill="white"/>
<path d="M103.941 63.5258L108.077 48.1258H113.115C115.55 48.1258 117.31 48.6685 118.395 49.7538C119.202 50.5605 119.605 51.6092 119.605 52.8998C119.605 54.7918 118.901 56.3025 117.493 57.4318C116.1 58.5465 114.252 59.1038 111.949 59.1038H109.419L108.231 63.5258H103.941ZM110.299 55.7818H111.905C112.947 55.7818 113.761 55.5692 114.347 55.1438C114.934 54.7038 115.227 54.1172 115.227 53.3838C115.227 52.9585 115.081 52.5992 114.787 52.3058C114.391 51.9098 113.783 51.7118 112.961 51.7118H111.377L110.299 55.7818Z" fill="white"/>
<path d="M118.723 63.5258L122.859 48.1258H128.667C131.131 48.1258 132.898 48.6612 133.969 49.7318C134.761 50.5238 135.157 51.5725 135.157 52.8778C135.157 54.1978 134.768 55.3345 133.991 56.2878C133.228 57.2265 132.077 57.9085 130.537 58.3338L132.913 63.5258H128.205L126.159 58.8618H124.267L123.013 63.5258H118.723ZM125.147 55.5178H127.589C128.557 55.5178 129.327 55.3272 129.899 54.9458C130.471 54.5645 130.757 54.0438 130.757 53.3838C130.757 52.9878 130.625 52.6432 130.361 52.3498C130.009 51.9978 129.378 51.8218 128.469 51.8218H126.159L125.147 55.5178Z" fill="white"/>
<path d="M143.313 63.8118C141.142 63.8118 139.375 63.1592 138.011 61.8538C136.647 60.5338 135.965 58.8838 135.965 56.9038C135.965 55.7452 136.192 54.6158 136.647 53.5158C137.116 52.4158 137.747 51.4478 138.539 50.6118C139.331 49.7758 140.299 49.1085 141.443 48.6098C142.601 48.0965 143.833 47.8398 145.139 47.8398C147.309 47.8398 149.077 48.4998 150.441 49.8198C151.805 51.1252 152.487 52.7678 152.487 54.7478C152.487 55.9065 152.252 57.0358 151.783 58.1358C151.328 59.2358 150.705 60.2038 149.913 61.0398C149.121 61.8758 148.145 62.5505 146.987 63.0638C145.843 63.5625 144.618 63.8118 143.313 63.8118ZM143.687 59.9838C144.977 59.9838 146.041 59.4778 146.877 58.4658C147.713 57.4392 148.131 56.3098 148.131 55.0778C148.131 54.0658 147.83 53.2445 147.229 52.6138C146.642 51.9832 145.821 51.6678 144.765 51.6678C143.489 51.6678 142.425 52.1812 141.575 53.2078C140.739 54.2345 140.321 55.3565 140.321 56.5738C140.321 57.5858 140.614 58.4072 141.201 59.0378C141.802 59.6685 142.631 59.9838 143.687 59.9838Z" fill="white"/>
</svg>
