<svg width="18" height="18" viewBox="0 0 18 18" fill="none" xmlns="http://www.w3.org/2000/svg">
<path d="M9 13.1667V13.175M1.5 9C1.5 9.98491 1.69399 10.9602 2.0709 11.8701C2.44781 12.7801 3.00026 13.6069 3.6967 14.3033C4.39314 14.9997 5.21993 15.5522 6.12987 15.9291C7.03982 16.306 8.01509 16.5 9 16.5C9.98491 16.5 10.9602 16.306 11.8701 15.9291C12.7801 15.5522 13.6069 14.9997 14.3033 14.3033C14.9997 13.6069 15.5522 12.7801 15.9291 11.8701C16.306 10.9602 16.5 9.98491 16.5 9C16.5 8.01509 16.306 7.03982 15.9291 6.12987C15.5522 5.21993 14.9997 4.39314 14.3033 3.6967C13.6069 3.00026 12.7801 2.44781 11.8701 2.0709C10.9602 1.69399 9.98491 1.5 9 1.5C8.01509 1.5 7.03982 1.69399 6.12987 2.0709C5.21993 2.44781 4.39314 3.00026 3.6967 3.6967C3.00026 4.39314 2.44781 5.21993 2.0709 6.12987C1.69399 7.03982 1.5 8.01509 1.5 9Z" stroke="#001931" stroke-opacity="0.3" stroke-width="1.4" stroke-linecap="round" stroke-linejoin="round"/>
<path d="M9.00065 10.2529C8.98531 9.98238 9.05828 9.7142 9.20858 9.48875C9.35888 9.2633 9.57837 9.09279 9.83398 9.00291C10.1472 8.88312 10.4284 8.69227 10.6553 8.44537C10.8822 8.19846 11.0487 7.90226 11.1418 7.58006C11.2348 7.25787 11.2517 6.91848 11.1913 6.58863C11.1308 6.25877 10.9946 5.94745 10.7934 5.67917C10.5922 5.41089 10.3315 5.19298 10.0317 5.04259C9.73199 4.8922 9.40144 4.81344 9.06609 4.81251C8.73074 4.81158 8.39975 4.8885 8.09919 5.03723C7.79862 5.18595 7.53668 5.40241 7.33398 5.66957" stroke="#001931" stroke-opacity="0.3" stroke-width="1.4" stroke-linecap="round" stroke-linejoin="round"/>
</svg>
