<svg width="16" height="16" viewBox="0 0 16 16" fill="none" xmlns="http://www.w3.org/2000/svg">
<g clip-path="url(#clip0_7296_34954)">
<path d="M9.1039 12.6796V11.0417C9.1039 10.9612 9.07661 10.8937 9.02201 10.8391C8.96741 10.7845 8.90276 10.7572 8.82804 10.7572H7.17287C7.09816 10.7572 7.0335 10.7845 6.9789 10.8391C6.92431 10.8937 6.89701 10.9612 6.89701 11.0417V12.6796C6.89701 12.7601 6.92431 12.8276 6.9789 12.8822C7.0335 12.9368 7.09816 12.9641 7.17287 12.9641H8.82804C8.90276 12.9641 8.96741 12.9368 9.02201 12.8822C9.07661 12.8276 9.1039 12.7601 9.1039 12.6796ZM9.08666 9.45548L9.24184 5.49859C9.24184 5.42962 9.2131 5.37502 9.15563 5.33479C9.08092 5.27157 9.01195 5.23996 8.94873 5.23996H7.05218C6.98896 5.23996 6.92 5.27157 6.84528 5.33479C6.78781 5.37502 6.75908 5.43537 6.75908 5.51583L6.90563 9.45548C6.90563 9.51295 6.93436 9.56037 6.99184 9.59772C7.04931 9.63508 7.11827 9.65376 7.19873 9.65376H8.79356C8.87402 9.65376 8.94155 9.63508 8.99615 9.59772C9.05074 9.56037 9.08092 9.51295 9.08666 9.45548ZM8.96597 1.40376L15.5867 13.5417C15.7878 13.9038 15.7821 14.2658 15.5694 14.6279C15.4717 14.7946 15.3381 14.9267 15.1686 15.0244C14.999 15.1221 14.8165 15.171 14.6211 15.171H1.37977C1.18436 15.171 1.00189 15.1221 0.832353 15.0244C0.662813 14.9267 0.529192 14.7946 0.431491 14.6279C0.218847 14.2658 0.2131 13.9038 0.41425 13.5417L7.03494 1.40376C7.13264 1.2256 7.2677 1.08479 7.44011 0.981344C7.61253 0.877896 7.79931 0.826172 8.00046 0.826172C8.20161 0.826172 8.38839 0.877896 8.5608 0.981344C8.73322 1.08479 8.86827 1.2256 8.96597 1.40376Z" fill="#E81719"/>
</g>
<defs>
<clipPath id="clip0_7296_34954">
<rect width="16" height="14.3448" fill="white" transform="translate(0 0.828125)"/>
</clipPath>
</defs>
</svg>
